<?xml version="1.0" encoding="UTF-8"?>
<!-- Generator: Adobe Illustrator 19.0.0, SVG Export Plug-In . SVG Version: 6.00 Build 0)  -->
<svg enable-background="new 0 0 329.954 329.954" version="1.1" viewBox="0 0 329.95 329.95" xml:space="preserve" xmlns="http://www.w3.org/2000/svg" xmlns:cc="http://creativecommons.org/ns#" xmlns:dc="http://purl.org/dc/elements/1.1/" xmlns:rdf="http://www.w3.org/1999/02/22-rdf-syntax-ns#"><metadata><rdf:RDF><cc:Work rdf:about=""><dc:format>image/svg+xml</dc:format><dc:type rdf:resource="http://purl.org/dc/dcmitype/StillImage"/><dc:title/></cc:Work></rdf:RDF></metadata>
<path id="XMLID_89_" d="m99.85 299.04c2.813 2.813 6.629 4.393 10.607 4.393 3.979 0 7.794-1.581 10.606-4.393l204.5-204.5c2.814-2.813 4.394-6.628 4.394-10.606 0-3.979-1.58-7.794-4.394-10.607l-42.427-42.426c-5.857-5.857-15.355-5.858-21.213 0l-151.46 151.46-42.428-42.428c-2.813-2.813-6.629-4.394-10.607-4.394s-7.793 1.581-10.606 4.394l-42.427 42.427c-5.857 5.858-5.857 15.355 0 21.213l95.457 95.463z" fill="#4abf44"/>
</svg>
