<?xml version="1.0" encoding="UTF-8"?>
<!-- Generator: Adobe Illustrator 19.0.0, SVG Export Plug-In . SVG Version: 6.00 Build 0)  -->
<svg enable-background="new 0 0 284.559 284.559" version="1.1" viewBox="0 0 284.56 284.56" xml:space="preserve" xmlns="http://www.w3.org/2000/svg" xmlns:cc="http://creativecommons.org/ns#" xmlns:dc="http://purl.org/dc/elements/1.1/" xmlns:rdf="http://www.w3.org/1999/02/22-rdf-syntax-ns#"><metadata><rdf:RDF><cc:Work rdf:about=""><dc:format>image/svg+xml</dc:format><dc:type rdf:resource="http://purl.org/dc/dcmitype/StillImage"/><dc:title/></cc:Work></rdf:RDF></metadata>
<path id="XMLID_90_" d="m4.394 237.74 42.427 42.427c2.812 2.813 6.629 4.394 10.606 4.394 3.978 0 7.794-1.581 10.606-4.394l74.246-74.246 74.246 74.246c2.813 2.813 6.629 4.394 10.606 4.394 3.978 0 7.794-1.581 10.607-4.394l42.427-42.427c5.858-5.858 5.858-15.355 0-21.213l-74.245-74.246 74.245-74.247c2.814-2.813 4.394-6.628 4.394-10.606 0-3.979-1.58-7.794-4.394-10.607l-42.426-42.427c-5.857-5.858-15.356-5.858-21.213 1e-3l-74.246 74.245-74.247-74.245c-5.857-5.858-15.356-5.858-21.213 0l-42.426 42.426c-2.814 2.813-4.394 6.628-4.394 10.606s1.58 7.793 4.394 10.606l74.245 74.247-74.245 74.247c-5.859 5.858-5.859 15.355 0 21.213z" fill="#ef0000"/>
</svg>
